<svg width="160" height="104" viewBox="0 0 160 104" fill="none" xmlns="http://www.w3.org/2000/svg">
<g clip-path="url(#clip0_1_375)">
<path d="M42.0172 86.7954H40.5895L40.342 85.1506H38.6151L38.3733 86.7954H37.0723L38.5115 77.7526H40.5895L42.0172 86.7954ZM38.7878 83.91H40.152L39.4671 79.3742L38.7878 83.91ZM45.2522 77.7526H46.6683V85.5029H48.9997V86.7954H45.2522V77.7526ZM55.1188 81.9768L54.6007 86.7954H52.6549L51.6533 77.7526H53.0292L53.789 84.8791L54.4971 77.7526H55.8614L56.5694 84.931L57.3062 77.7526H58.5266L57.5192 86.7954H55.6484L55.1188 81.9768ZM66.2 86.7954H64.7667L64.5249 85.1506H62.7979L62.5562 86.7954H61.2552L62.6943 77.7526H64.7724L66.2 86.7954ZM62.9649 83.91H64.3292L63.6442 79.3742L62.9649 83.91ZM70.7589 83.7942L68.9631 77.7526H70.448L71.5308 81.873L72.6128 77.7526H73.9657L72.1749 83.7942V86.7954H70.7589V83.7942ZM78.9219 77.6431C80.3035 77.6431 81.0116 78.4683 81.0116 79.9166V80.1994H79.6699V79.8247C79.6699 79.1784 79.411 78.9357 78.9619 78.9357C78.5135 78.9357 78.2538 79.1784 78.2538 79.8247C78.2538 81.6884 81.0228 82.0344 81.0228 84.6194C81.0228 86.0621 80.3035 86.8929 78.9106 86.8929C77.517 86.8929 76.7978 86.0621 76.7978 84.6194V84.0426H78.1388V84.6889C78.1388 85.3352 78.4209 85.5716 78.8699 85.5716C79.319 85.5716 79.6067 85.3352 79.6067 84.6889C79.6067 82.8308 76.8378 82.4849 76.8378 79.8998C76.8378 78.4739 77.5234 77.6431 78.9219 77.6431ZM90.4005 81.7691H92.2305V83.0617H90.4005V86.7954H88.9844V77.7526H92.7315V79.0458H90.4292L90.4005 81.7691ZM98.9543 86.7954C98.8399 86.4354 98.7971 86.0572 98.828 85.6811V84.2616C98.828 83.4195 98.5396 83.108 97.8954 83.108H97.4056V86.7891H95.9896V77.7526H98.1312C99.5992 77.7526 100.232 78.4396 100.232 79.8303V80.5285C100.232 81.4576 99.9332 82.0695 99.2995 82.3635C100.014 82.6638 100.244 83.3444 100.244 84.291V85.7218C100.217 86.0944 100.27 86.4677 100.399 86.8186L98.9543 86.7954ZM97.4056 79.0458V81.8211H97.9817C98.5052 81.8211 98.828 81.5902 98.828 80.8632V79.9517C98.828 79.3055 98.6091 79.0227 98.108 79.0227L97.4056 79.0458ZM105.154 81.5614H107.1V82.8364H105.154V85.4853H107.606V86.7779H103.738V77.7526H107.606V79.0458H105.154V81.5614ZM112.972 77.6431C114.347 77.6431 115.055 78.4683 115.055 79.9166V80.1994H113.714V79.8247C113.714 79.1784 113.461 78.9357 113.006 78.9357C112.551 78.9357 112.298 79.1784 112.298 79.8247C112.298 81.6884 115.067 82.0344 115.067 84.6194C115.067 86.0621 114.347 86.8929 112.954 86.8929C111.561 86.8929 110.841 86.0621 110.841 84.6194V84.0426H112.183V84.6889C112.183 85.3352 112.465 85.5716 112.92 85.5716C113.374 85.5716 113.651 85.3352 113.651 84.6889C113.651 82.8308 110.882 82.4849 110.882 79.8998C110.911 78.4739 111.59 77.6431 112.972 77.6431ZM119.874 86.7954H118.457V77.7526H119.874V81.6246H121.486V77.7526H122.93V86.7954H121.486V82.9171H119.874V86.7954ZM4.88184 55.266L11.1794 55.3063V59.5764L4.88184 59.6341V72.2541C2.9304 72.3635 1.95755 72.4211 0.00610352 72.5425V41.3823C5.18694 41.6997 7.74857 41.844 12.9122 42.1152V46.3565C9.70002 46.2353 8.09395 46.1718 4.88184 46.0391V55.266ZM14.8636 49.3054C14.8636 44.5911 17.4771 42.0347 22.2722 42.254C27.0674 42.4733 29.6808 45.1392 29.6808 49.6517V64.297C29.6808 68.8037 27.0674 71.4752 22.2722 71.6948C17.4771 71.9137 14.8636 69.3577 14.8636 64.6375V49.3054ZM19.7451 64.8047C19.7451 66.8763 20.718 67.6322 22.2722 67.5803C23.8265 67.5284 24.7994 66.7263 24.7994 64.6951V49.2593C24.7994 47.2223 23.8265 46.4145 22.2722 46.3741C20.718 46.3337 19.7451 47.0781 19.7451 49.1497V64.8047ZM32.4439 49.7031C32.4439 45.231 35.0631 42.7786 39.8583 42.9286C44.6534 43.0786 47.2726 45.6118 47.2726 49.9396V64.0079C47.2726 68.3357 44.6534 70.8689 39.8583 71.0191C35.0631 71.1692 32.4439 68.7108 32.4439 64.2445V49.7031ZM37.3255 64.4291C37.3255 66.4026 38.304 67.1297 39.8583 67.095C41.4125 67.0604 42.3911 66.2987 42.3911 64.3484V49.5992C42.3911 47.6488 41.4125 46.8871 39.8583 46.8525C38.304 46.8178 37.3255 47.5449 37.3255 49.5127V64.4291ZM50.4099 43.5292C53.5011 43.5985 55.0496 43.6273 58.135 43.6793C63.0223 43.76 65.417 46.0798 65.417 50.3037V63.6449C65.417 67.8688 63.0223 70.1885 58.135 70.2693C55.0496 70.3212 53.5299 70.3501 50.4099 70.4193V43.5292ZM55.2971 47.4416V66.4839L58.0487 66.4493C59.6029 66.4493 60.5355 65.7396 60.5355 63.8469V50.0556C60.5355 48.1629 59.6029 47.4704 58.0487 47.4531L55.2971 47.4416ZM73.9825 43.852H89.0763V47.6085H83.9756V70.1131H79.0713V47.6374H73.9657L73.9825 43.852ZM101.418 70.2631C101.153 69.5764 100.975 69.1551 100.975 66.9912V62.8192C100.975 60.3495 99.9963 59.4378 97.7796 59.432H96.0934V70.188L91.206 70.1419V43.8173C94.1532 43.8173 95.6331 43.7711 98.5803 43.7307C103.64 43.6557 105.816 45.6292 105.816 49.755V51.8555C105.816 54.6079 104.791 56.3679 102.615 57.2393V57.3143C105.062 58.1914 105.856 60.1995 105.856 62.9692V67.0951C105.77 68.2093 105.953 69.3278 106.392 70.3554C104.4 70.315 103.41 70.2919 101.418 70.2631ZM96.0934 47.5392V55.6524H97.9986C99.8237 55.6524 100.929 54.9657 100.929 52.8365V50.2224C100.929 48.324 100.175 47.4988 98.4421 47.5161L96.0934 47.5392ZM113.714 43.4244V64.3306C113.714 66.2637 114.692 66.9792 116.247 67.0081C117.801 67.0369 118.774 66.3618 118.774 64.4056V43.286L123.379 43.1359V64.2037C123.379 68.6353 120.898 71.0703 116.103 70.9377C111.308 70.805 108.821 68.2949 108.821 64.0132V43.5398C110.784 43.4994 111.763 43.4763 113.714 43.4244ZM140.879 60.667V64.5332C140.879 69.1841 138.392 71.7173 133.603 71.5152C128.813 71.3131 126.32 68.6821 126.32 64.2216V49.7263C126.32 45.2657 128.807 42.6344 133.603 42.4325C138.397 42.2305 140.879 44.7407 140.879 49.4147V52.2538L136.273 52.323V49.2531C136.273 47.2046 135.301 46.4603 133.747 46.5064C132.192 46.5526 131.213 47.3489 131.213 49.3916V64.637C131.213 66.6567 132.192 67.4069 133.747 67.453C135.301 67.4992 136.273 66.7952 136.273 64.7524V60.6554L140.879 60.667ZM150.239 60.0152C149.663 61.1058 149.335 61.6482 148.731 62.7273V71.873L143.849 71.6253V42.2943L148.731 42.0461V54.9661H148.817C151.338 49.7727 152.599 47.1299 155.114 41.6942C157.066 41.5846 158.045 41.5268 159.996 41.4056C157.279 47.1241 155.926 49.9055 153.209 55.3296C155.511 61.0481 157.768 66.7954 159.996 72.5488L154.982 72.2485C153.088 67.257 152.138 64.8219 150.239 60.0152ZM79.9983 91.7157L78.0405 95.6916L73.6661 96.3259L76.8322 99.4246L76.0835 103.787L79.9983 101.728L83.9124 103.787L83.1637 99.4246L86.3298 96.3259L81.9554 95.6916L79.9983 91.7157ZM65.6068 93.7296L64.3059 96.3785L61.3873 96.8052L63.5 98.8654L62.9991 101.78L65.6068 100.4L68.2203 101.78L67.7195 98.8654L69.8321 96.8052L66.9136 96.3785L65.6068 93.7296ZM94.389 93.7296L93.088 96.3785L90.1696 96.8052L92.2824 98.8654L91.7814 101.78L94.389 100.4L97.0029 101.78L96.5018 98.8654L98.6147 96.8052L95.6963 96.3785L94.389 93.7296Z" fill="white"/>
<path d="M17.8311 30.9033H36.2518M123.75 30.9033H142.171" stroke="white" stroke-width="1.40906" stroke-miterlimit="10"/>
<path d="M42.6055 26.8683H44.5584L45.4291 33.1152H45.454L46.3247 26.8683H48.2776V35.5966H46.9839V28.988H46.9591L45.964 35.5966H44.8196L43.8245 28.988H43.7996V35.5966H42.6055V26.8683ZM58.7521 26.8683H62.4838V28.1153H60.1204V30.422H61.9986V31.6689H60.1204V34.3497H62.4838V35.5966H58.7521V26.8683ZM73.9552 31.1327L72.45 26.8683H73.8934L74.8134 29.6863H74.8386L75.7838 26.8683H77.0778L75.5726 31.1327L77.1522 35.5966H75.7094L74.7137 32.5542H74.6892L73.6689 35.5966H72.3756L73.9552 31.1327ZM87.2554 26.8683H88.6237V35.5966H87.2554V26.8683ZM101.03 35.7213C100.375 35.7213 99.8735 35.5342 99.5248 35.1601C99.1852 34.7861 99.0146 34.2582 99.0146 33.5766V28.8883C99.0146 28.2067 99.1852 27.6788 99.5248 27.3047C99.8735 26.9307 100.375 26.7437 101.03 26.7437C101.685 26.7437 102.183 26.9307 102.523 27.3047C102.871 27.6788 103.045 28.2067 103.045 28.8883V29.811H101.751V28.801C101.751 28.2607 101.523 27.9906 101.067 27.9906C100.611 27.9906 100.383 28.2607 100.383 28.801V33.6764C100.383 34.2083 100.611 34.4744 101.067 34.4744C101.523 34.4744 101.751 34.2083 101.751 33.6764V32.3422H103.045V33.5766C103.045 34.2582 102.871 34.7861 102.523 35.1601C102.183 35.5342 101.685 35.7213 101.03 35.7213ZM115.32 35.7213C114.647 35.7213 114.134 35.5301 113.777 35.1477C113.42 34.7653 113.242 34.225 113.242 33.5267V28.9382C113.242 28.2399 113.42 27.6996 113.777 27.3172C114.134 26.9349 114.647 26.7437 115.32 26.7437C115.991 26.7437 116.505 26.9349 116.862 27.3172C117.218 27.6996 117.397 28.2399 117.397 28.9382V33.5267C117.397 34.225 117.218 34.7653 116.862 35.1477C116.505 35.5301 115.991 35.7213 115.32 35.7213ZM115.32 34.4744C115.792 34.4744 116.028 34.1876 116.028 33.614V28.8509C116.028 28.2774 115.792 27.9906 115.32 27.9906C114.847 27.9906 114.61 28.2774 114.61 28.8509V33.614C114.61 34.1876 114.847 34.4744 115.32 34.4744Z" fill="white"/>
<mask id="mask0_1_375" style="mask-type:luminance" maskUnits="userSpaceOnUse" x="70" y="0" width="20" height="20">
<path d="M70.7904 0.637695H89.2111V19.103H70.7904V0.637695Z" fill="white"/>
</mask>
<g mask="url(#mask0_1_375)">
<path d="M88.0195 6.1169C88.07 5.87689 88.0959 5.63225 88.0959 5.38603C88.0959 4.26491 87.5591 3.1974 86.6602 2.5305C86.4203 2.35273 86.0827 2.40336 85.9052 2.64353C85.7277 2.88366 85.7782 3.22246 86.0182 3.40019C86.6434 3.86397 87.0167 4.60635 87.0167 5.38603C87.0167 5.45427 87.0132 5.52228 87.0076 5.59002C87.0027 5.58854 86.9985 5.58681 86.9935 5.58537C85.5431 5.1512 84.0029 5.82939 83.3313 7.16932C83.3559 7.19247 83.3797 7.21815 83.4008 7.24668C83.8113 7.80482 84.4428 8.12493 85.1326 8.12493C85.4414 8.12493 85.7396 8.06101 86.0175 7.93484C86.1697 7.86608 86.3445 7.87134 86.4918 7.94916C86.6392 8.02698 86.7423 8.16865 86.7711 8.33299C86.9536 9.36147 87.844 10.108 88.8889 10.108L88.8973 10.1078C88.9057 10.1077 88.9134 10.1084 88.9219 10.1086C89.0236 9.7787 89.105 9.44413 89.1639 9.10619C89.3674 7.94488 88.898 6.80711 88.0195 6.1169ZM85.875 9.12142C85.6336 9.1784 85.3852 9.2071 85.1326 9.2071C84.2562 9.2071 83.4162 8.84425 82.8121 8.22022C81.4781 10.5575 79.0432 12.3687 76.1191 13.154C74.5649 13.5715 72.9355 13.6738 71.4079 13.4496C71.1819 13.4165 70.9595 13.5297 70.8528 13.7324C70.7461 13.9349 70.7784 14.183 70.9328 14.3515C72.6948 16.2678 75.3718 17.3159 78.2292 17.3159C79.2558 17.3159 80.3062 17.1805 81.3448 16.9015C83.3706 16.3574 85.1817 15.3236 86.583 13.9117C87.4083 13.0804 88.0588 12.1533 88.5142 11.1685C87.3163 11.0301 86.3031 10.2352 85.875 9.12142Z" fill="white"/>
</g>
</g>
<defs>
<clipPath id="clip0_1_375">
<rect width="159.99" height="103.15" fill="white" transform="translate(0.00610352 0.637695)"/>
</clipPath>
</defs>
</svg>
